<?xml version="1.0" standalone="no"?>
<!DOCTYPE svg PUBLIC "-//W3C//DTD SVG 20010904//EN"
 "http://www.w3.org/TR/2001/REC-SVG-20010904/DTD/svg10.dtd">
<svg version="1.0" xmlns="http://www.w3.org/2000/svg"
 width="256.000000pt" height="256.000000pt" viewBox="0 0 256.000000 256.000000"
 preserveAspectRatio="xMidYMid meet">

<g transform="translate(0.000000,256.000000) scale(0.100000,-0.100000)"
fill="#000000" stroke="none">
<path d="M443 2540 c-63 -38 -63 -39 -63 -463 l0 -385 -106 -137 c-58 -75
-118 -162 -132 -193 l-27 -57 -3 -382 -3 -383 -39 0 c-70 0 -70 -2 -70 -270 0
-204 2 -241 16 -254 13 -14 67 -16 434 -16 367 0 421 2 434 16 14 13 16 50 16
252 0 132 -5 244 -10 252 -6 10 -32 17 -72 20 -81 6 -81 17 -3 121 l60 79 210
0 c329 0 315 -19 315 406 0 321 -1 324 -50 324 -48 0 -50 -10 -50 -221 l0
-196 -27 -6 c-53 -11 -121 -64 -152 -119 -17 -29 -31 -61 -31 -70 0 -16 -11
-18 -81 -18 -73 0 -80 2 -74 18 44 106 105 354 105 427 0 22 -7 52 -15 68 -14
27 -13 28 23 51 48 31 75 61 104 116 19 37 23 60 23 130 0 99 -17 142 -80 205
-57 58 -107 79 -195 83 -69 4 -80 1 -140 -30 -112 -58 -166 -154 -158 -280 5
-79 38 -148 95 -198 l43 -37 -77 -139 c-88 -161 -98 -174 -129 -174 -56 0 -54
-18 -54 601 0 535 1 569 18 569 9 0 41 14 70 31 55 31 108 99 119 152 l6 27
198 0 c183 0 199 -1 199 -17 0 -10 14 -42 31 -71 31 -55 99 -108 152 -119 l27
-5 0 -197 c0 -211 2 -221 50 -221 49 0 50 3 50 324 0 338 -3 355 -70 388 -32
16 -75 18 -445 18 -389 0 -412 -1 -442 -20z m147 -87 c0 -27 -76 -103 -102
-103 -10 0 -11 94 -1 103 9 10 103 9 103 0z m708 -50 c2 -29 -1 -53 -5 -53
-27 0 -103 76 -103 103 0 4 24 7 53 5 l52 -3 3 -52z m-320 -582 c67 -34 102
-93 102 -171 0 -111 -79 -190 -190 -190 -111 0 -190 79 -190 190 0 111 77 189
188 190 33 0 67 -7 90 -19z m-571 -777 c41 -58 131 -81 191 -50 42 22 64 52
132 176 86 157 104 180 141 180 36 0 69 -31 69 -65 0 -33 -46 -245 -66 -310
-28 -85 -93 -201 -157 -277 -50 -60 -61 -79 -63 -113 l-2 -40 -221 -3 -222 -2
3 377 c3 431 -5 389 102 527 l61 78 5 -223 c5 -211 6 -226 27 -255z m893 -137
c0 -24 -5 -48 -12 -55 -13 -13 -98 -17 -98 -4 0 26 76 102 103 102 4 0 7 -19
7 -43z m-500 -637 l0 -170 -350 0 -350 0 0 170 0 170 350 0 350 0 0 -170z"/>
<path d="M856 2204 c-31 -30 -9 -84 34 -84 24 0 50 26 50 50 0 24 -26 50 -50
50 -10 0 -26 -7 -34 -16z"/>
<path d="M1933 2186 c-184 -45 -335 -196 -378 -377 -28 -121 -12 -252 45 -356
l29 -54 -32 -67 c-30 -62 -32 -74 -32 -172 l1 -105 87 -236 c48 -130 87 -246
87 -258 0 -19 -6 -21 -54 -21 -88 0 -86 6 -86 -270 0 -204 2 -241 16 -254 13
-14 67 -16 434 -16 367 0 421 2 434 16 14 13 16 50 16 254 0 278 3 270 -91
270 -56 0 -59 1 -59 24 0 13 20 59 45 102 80 140 85 167 85 475 0 268 0 270
25 319 53 104 67 232 40 349 -64 268 -345 441 -612 377z m221 -101 c77 -20
133 -54 193 -118 90 -95 127 -217 106 -343 -6 -36 -14 -68 -16 -70 -3 -3 -20
4 -38 15 -19 12 -42 21 -52 21 -16 0 -17 7 -11 63 10 100 -14 166 -85 238 -44
44 -70 61 -111 73 -115 34 -206 12 -291 -73 -85 -85 -107 -176 -73 -291 12
-41 29 -67 73 -111 70 -70 139 -95 233 -85 l58 6 0 -60 0 -59 -36 -7 c-107
-20 -238 23 -328 106 -106 100 -152 230 -129 365 15 86 46 149 106 212 108
115 251 157 401 118z m-36 -220 c160 -67 160 -283 0 -350 -47 -19 -89 -19
-136 0 -157 66 -161 275 -7 346 49 23 94 24 143 4z m245 -393 c15 -14 17 -41
17 -303 0 -328 0 -328 -81 -469 -35 -61 -49 -97 -49 -123 l0 -37 -205 0 -205
0 0 30 c0 16 -40 142 -90 280 -71 196 -90 262 -90 303 0 59 25 157 40 157 6 0
30 -15 54 -34 24 -18 64 -41 89 -52 l45 -18 4 -62 c7 -116 77 -180 187 -172
70 5 111 32 140 91 19 39 21 61 21 211 0 99 4 175 11 187 21 39 74 45 112 11z
m-223 -320 c0 -50 -29 -82 -75 -82 -40 0 -75 37 -75 81 0 28 1 28 68 32 37 2
70 4 75 5 4 1 7 -15 7 -36z m260 -882 l0 -170 -350 0 -350 0 0 170 0 170 350
0 350 0 0 -170z"/>
<path d="M1316 1684 c-9 -8 -16 -24 -16 -34 0 -10 7 -26 16 -34 8 -9 24 -16
34 -16 43 0 65 54 34 84 -8 9 -24 16 -34 16 -10 0 -26 -7 -34 -16z"/>
</g>
</svg>
