<?xml version="1.0" standalone="no"?>
<!DOCTYPE svg PUBLIC "-//W3C//DTD SVG 20010904//EN"
 "http://www.w3.org/TR/2001/REC-SVG-20010904/DTD/svg10.dtd">
<svg version="1.0" xmlns="http://www.w3.org/2000/svg"
 width="256.000000pt" height="256.000000pt" viewBox="0 0 256.000000 256.000000"
 preserveAspectRatio="xMidYMid meet">

<g transform="translate(0.000000,256.000000) scale(0.100000,-0.100000)"
fill="#000000" stroke="none">
<path d="M1346 2538 c-11 -16 -16 -46 -16 -105 0 -70 3 -86 20 -103 25 -25 42
-25 63 -2 13 15 17 39 17 115 0 85 -2 98 -19 107 -30 16 -48 12 -65 -12z"/>
<path d="M932 2418 c-16 -16 -16 -200 0 -216 19 -19 66 -15 78 7 5 11 10 56
10 101 0 45 -5 90 -10 101 -12 22 -59 26 -78 7z"/>
<path d="M1111 2114 c-120 -42 -210 -142 -241 -267 -12 -44 -13 -45 -58 -52
-26 -3 -73 -13 -105 -22 l-57 -16 -39 27 c-86 60 -202 85 -298 66 -107 -22
-223 -97 -223 -144 0 -13 38 -59 98 -119 l97 -98 -23 -37 c-13 -20 -40 -72
-60 -114 l-37 -78 -60 0 c-108 0 -105 6 -105 -254 l0 -223 48 -74 c95 -145
234 -269 380 -338 l72 -35 0 -158 c0 -145 1 -158 19 -168 29 -15 383 -13 403
2 9 7 28 51 41 98 l24 85 142 3 141 3 0 -84 c0 -122 -11 -117 257 -117 197 0
222 2 235 18 9 9 57 85 107 167 51 83 102 157 114 165 39 26 155 141 182 180
29 42 27 73 -5 90 -27 15 -40 6 -108 -70 -34 -38 -87 -88 -118 -112 -45 -35
-71 -70 -143 -188 l-88 -145 -166 -3 -167 -2 0 88 c0 55 -4 92 -12 100 -19 19
-422 17 -441 -2 -7 -8 -24 -53 -37 -100 l-23 -86 -128 0 -129 0 0 136 c0 74
-4 144 -10 154 -5 10 -52 38 -104 64 -148 72 -261 170 -354 308 l-32 47 0 175
0 176 64 0 c73 0 78 4 106 84 33 97 80 167 169 256 99 98 186 148 319 181 88
22 112 20 112 -8 0 -10 11 -39 24 -65 l23 -48 -51 0 c-29 0 -57 -5 -64 -12
-15 -15 -15 -61 0 -76 9 -9 117 -12 424 -12 362 0 415 2 428 16 41 40 7 84
-64 84 l-49 0 24 53 c14 28 25 60 25 70 0 22 10 21 104 -3 120 -30 227 -92
315 -180 124 -123 195 -274 208 -443 5 -68 9 -81 30 -94 21 -14 25 -14 48 1
20 13 25 25 25 59 0 34 -13 135 -23 179 -1 5 21 11 50 13 151 11 251 154 198
283 -31 74 -90 114 -165 114 -74 0 -130 -36 -130 -84 0 -41 40 -58 80 -35 64
38 117 12 127 -62 5 -36 2 -44 -28 -74 -75 -75 -157 -55 -223 56 -60 99 -145
189 -239 251 -97 64 -160 91 -281 120 l-89 22 -14 54 c-27 109 -117 208 -228
249 -67 25 -179 27 -244 5z m201 -94 c89 -25 173 -129 185 -227 7 -65 -17
-146 -57 -195 l-31 -38 -178 0 -177 0 -27 28 c-39 41 -67 110 -67 168 -1 187
170 314 352 264z m-814 -287 c23 -9 42 -18 42 -22 0 -3 -26 -23 -58 -43 -31
-20 -73 -53 -92 -73 l-34 -35 -68 67 c-37 37 -68 71 -68 75 0 11 53 37 97 48
47 11 125 4 181 -17z"/>
<path d="M520 1348 c-57 -39 -75 -72 -75 -137 0 -47 5 -64 27 -93 37 -48 89
-72 146 -65 51 6 87 29 120 78 31 44 28 129 -6 176 -45 63 -149 83 -212 41z
m122 -95 c37 -33 11 -103 -39 -103 -12 0 -32 9 -43 20 -55 55 24 135 82 83z"/>
<path d="M2208 819 c-21 -12 -24 -59 -6 -77 19 -19 55 -14 72 10 20 29 20 34
-4 58 -22 22 -37 24 -62 9z"/>
</g>
</svg>
